<svg width="45" height="45" viewBox="0 0 45 45" fill="none" xmlns="http://www.w3.org/2000/svg">
<g clip-path="url(#clip0)">
<path d="M22.4531 5.37354C25.5608 5.37354 27.4261 7.12686 27.4261 10.2676V34.9748C27.4261 35.656 26.8739 36.2082 26.1927 36.2082C25.5115 36.2082 24.9593 35.656 24.9593 34.9748V10.3071C24.9593 8.25431 24.5453 7.84031 22.4925 7.84031C20.4397 7.84031 20.0257 8.25431 20.0257 10.3071V34.9748C20.0257 35.656 19.4736 36.2082 18.7923 36.2082C18.1111 36.2082 17.559 35.656 17.559 34.9748V10.2676C17.559 6.99052 19.1759 5.37342 22.4531 5.37354Z" fill="#E7F3F9"/>
<path d="M10.1192 15.2406C6.842 15.2405 5.2251 16.8576 5.2251 20.1347V34.9748C5.2251 35.656 5.77728 36.2082 6.45848 36.2082C7.13969 36.2082 7.69187 35.656 7.69187 34.9748V20.1742C7.69187 18.1214 8.10588 17.7074 10.1586 17.7074C12.2114 17.7074 12.6254 18.1214 12.6254 20.1742V34.9748C12.6254 35.656 13.1776 36.2082 13.8588 36.2082C14.54 36.2082 15.0922 35.656 15.0922 34.9748V20.1347C15.0922 16.7999 13.4279 15.2406 10.1192 15.2406Z" fill="#E7F3F9"/>
<path d="M6.45848 39.9084C5.77728 39.9084 5.2251 40.4606 5.2251 41.1417C5.2251 41.8229 5.77728 42.3751 6.45848 42.3751H38.5265C39.2077 42.3751 39.7599 41.8229 39.7599 41.1417C39.7599 40.4606 39.2077 39.9084 38.5265 39.9084H6.45848Z" fill="#E7F3F9"/>
<g filter="url(#filter0_d)">
<path d="M34.7872 21.4077C31.51 21.4076 29.8931 23.0247 29.8931 26.3018V34.975C29.8931 35.6561 30.4452 36.2084 31.1265 36.2084C31.8077 36.2084 32.3598 35.6561 32.3598 34.975V26.3413C32.3598 24.2885 32.7738 23.8745 34.8266 23.8745C36.8794 23.8745 37.2934 24.2885 37.2934 26.3413V34.975C37.2934 35.6561 37.8456 36.2084 38.5268 36.2084C39.208 36.2084 39.7602 35.6561 39.7602 34.975V26.3018C39.7602 23.161 37.8949 21.4077 34.7872 21.4077Z" fill="white"/>
</g>
</g>
<defs>
<filter id="filter0_d" x="17.2509" y="8.7655" width="35.1515" height="40.0851" filterUnits="userSpaceOnUse" color-interpolation-filters="sRGB">
<feFlood flood-opacity="0" result="BackgroundImageFix"/>
<feColorMatrix in="SourceAlpha" type="matrix" values="0 0 0 0 0 0 0 0 0 0 0 0 0 0 0 0 0 0 127 0"/>
<feOffset/>
<feGaussianBlur stdDeviation="6.32111"/>
<feColorMatrix type="matrix" values="0 0 0 0 0.1 0 0 0 0 0.1 0 0 0 0 0.1 0 0 0 0.4 0"/>
<feBlend mode="normal" in2="BackgroundImageFix" result="effect1_dropShadow"/>
<feBlend mode="normal" in="SourceGraphic" in2="effect1_dropShadow" result="shape"/>
</filter>
<clipPath id="clip0">
<rect width="44.4019" height="44.4019" fill="white" transform="translate(0.291992 0.440186)"/>
</clipPath>
</defs>
</svg>
