<svg width="45" height="45" viewBox="0 0 45 45" fill="none" xmlns="http://www.w3.org/2000/svg">
<g filter="url(#filter0_d)">
<path d="M33.6005 24.3683C33.1188 23.8867 32.3379 23.8867 31.8562 24.3683C31.3745 24.85 31.3745 25.6309 31.8562 26.1126L34.1113 28.3678H25.9009C25.2197 28.3678 24.6675 28.92 24.6675 29.6011C24.6675 30.2823 25.2197 30.8345 25.9009 30.8345H34.1113L31.8562 33.0897C31.3745 33.5714 31.3745 34.3523 31.8562 34.834C32.3379 35.3156 33.1188 35.3156 33.6005 34.834L37.9611 30.4733C38.4428 29.9916 38.4428 29.2107 37.9611 28.729L33.6005 24.3683Z" fill="#E7F3F9"/>
</g>
<path fill-rule="evenodd" clip-rule="evenodd" d="M24.6678 7.40104C20.557 7.37179 16.4449 7.4002 12.3339 7.4002C10.2812 7.4002 9.86716 7.81421 9.86716 9.86698V37.0015C9.86716 39.0543 10.2812 39.4683 12.3339 39.4683H32.0681C34.1209 39.4683 34.5349 39.0543 34.5349 37.0015C34.5349 36.1611 34.6736 35.1514 35.7683 35.1514C36.8852 35.1514 37.0017 36.1919 37.0017 37.0409C37.0017 40.3181 35.3848 41.9351 32.1076 41.935H12.2945C9.01729 41.9351 7.40039 40.318 7.40039 37.0409V9.82753C7.40039 6.55088 9.01686 4.93337 12.2938 4.93343L24.4542 4.93339C25.8262 4.93231 26.8259 5.34584 27.7955 6.31676L27.7966 6.31787L35.6173 14.1385C36.566 15.086 37.0027 16.1095 37.0017 17.4791L37.0017 20.6591C37.0017 21.3403 36.4495 21.8925 35.7683 21.8925C35.0871 21.8925 34.5349 21.3403 34.5349 20.6591C34.5349 19.5286 34.5424 18.3978 34.5341 17.2673H28.368C26.3244 17.2673 24.6678 15.6107 24.6678 13.5671V7.40104ZM32.7906 14.8005L27.1346 9.14449V13.5671C27.1346 14.2483 27.6868 14.8005 28.368 14.8005H32.7906Z" fill="white"/>
<path d="M13.5673 20.9675C13.5673 20.2863 14.1195 19.7341 14.8007 19.7341H29.6014C30.2826 19.7341 30.8347 20.2863 30.8347 20.9675C30.8347 21.6486 30.2826 22.2008 29.6014 22.2008H14.8007C14.1195 22.2008 13.5673 21.6486 13.5673 20.9675Z" fill="white"/>
<path d="M14.8007 14.8005C14.1195 14.8005 13.5673 15.3527 13.5673 16.0339C13.5673 16.7151 14.1195 17.2673 14.8007 17.2673H19.7343C20.4155 17.2673 20.9676 16.7151 20.9676 16.0339C20.9676 15.3527 20.4155 14.8005 19.7343 14.8005H14.8007Z" fill="white"/>
<defs>
<filter id="filter0_d" x="19.1172" y="18.4568" width="24.7554" height="22.2886" filterUnits="userSpaceOnUse" color-interpolation-filters="sRGB">
<feFlood flood-opacity="0" result="BackgroundImageFix"/>
<feColorMatrix in="SourceAlpha" type="matrix" values="0 0 0 0 0 0 0 0 0 0 0 0 0 0 0 0 0 0 127 0"/>
<feOffset/>
<feGaussianBlur stdDeviation="2.77512"/>
<feColorMatrix type="matrix" values="0 0 0 0 1 0 0 0 0 1 0 0 0 0 1 0 0 0 0.5 0"/>
<feBlend mode="normal" in2="BackgroundImageFix" result="effect1_dropShadow"/>
<feBlend mode="normal" in="SourceGraphic" in2="effect1_dropShadow" result="shape"/>
</filter>
</defs>
</svg>
