<svg width="68" height="68" viewBox="0 0 68 68" fill="none" xmlns="http://www.w3.org/2000/svg">
<path d="M35.8889 20.7778C35.8889 19.7346 35.0431 18.8889 34 18.8889C32.9569 18.8889 32.1111 19.7346 32.1111 20.7778V54.7778C32.1111 55.821 32.9569 56.6667 34 56.6667C35.0431 56.6667 35.8889 55.821 35.8889 54.7778V20.7778Z" fill="white"/>
<path d="M20.7778 49.1111C20.7778 48.0679 19.932 47.2223 18.8889 47.2223C17.8458 47.2223 17 48.0679 17 49.1111V54.7778C17 55.821 17.8458 56.6667 18.8889 56.6667C19.932 56.6667 20.7778 55.821 20.7778 54.7778V49.1111Z" fill="white"/>
<path d="M18.8889 18.8889C19.932 18.8889 20.7778 19.7346 20.7778 20.7778V34C20.7778 35.0432 19.932 35.8889 18.8889 35.8889C17.8458 35.8889 17 35.0432 17 34V20.7778C17 19.7346 17.8458 18.8889 18.8889 18.8889Z" fill="white"/>
<path d="M51 20.7778C51 19.7346 50.1542 18.8889 49.1111 18.8889C48.068 18.8889 47.2222 19.7346 47.2222 20.7778V47.2223C47.2222 48.2655 48.068 49.1111 49.1111 49.1111C50.1542 49.1111 51 48.2655 51 47.2223V20.7778Z" fill="white"/>
<g filter="url(#filter0_d)">
<path fill-rule="evenodd" clip-rule="evenodd" d="M28.3333 17C28.3333 13.8704 30.8703 11.3334 33.9999 11.3334C37.1296 11.3334 39.6666 13.8704 39.6666 17C39.6666 20.1297 37.1296 22.6667 33.9999 22.6667C30.8703 22.6667 28.3333 20.1297 28.3333 17ZM33.9999 15.1112C32.9568 15.1112 32.1111 15.9568 32.1111 17C32.1111 18.0432 32.9568 18.8889 33.9999 18.8889C35.0431 18.8889 35.8888 18.0432 35.8888 17C35.8888 15.9568 35.0431 15.1112 33.9999 15.1112Z" fill="#5686F5"/>
<path fill-rule="evenodd" clip-rule="evenodd" d="M13.2222 37.7778C13.2222 34.6482 15.7592 32.1111 18.8888 32.1111C22.0185 32.1111 24.5555 34.6482 24.5555 37.7778C24.5555 40.9074 22.0185 43.4445 18.8888 43.4445C15.7592 43.4445 13.2222 40.9074 13.2222 37.7778ZM18.8888 35.8889C17.8457 35.8889 16.9999 36.7346 16.9999 37.7778C16.9999 38.821 17.8457 39.6667 18.8888 39.6667C19.932 39.6667 20.7777 38.821 20.7777 37.7778C20.7777 36.7346 19.932 35.8889 18.8888 35.8889Z" fill="#5686F5"/>
<path fill-rule="evenodd" clip-rule="evenodd" d="M49.1111 45.3334C45.9814 45.3334 43.4444 47.8704 43.4444 51C43.4444 54.1296 45.9814 56.6667 49.1111 56.6667C52.2407 56.6667 54.7777 54.1296 54.7777 51C54.7777 47.8704 52.2407 45.3334 49.1111 45.3334ZM47.2222 51C47.2222 49.9568 48.0679 49.1111 49.1111 49.1111C50.1542 49.1111 50.9999 49.9568 50.9999 51C50.9999 52.0432 50.1542 52.8889 49.1111 52.8889C48.0679 52.8889 47.2222 52.0432 47.2222 51Z" fill="#5686F5"/>
</g>
<defs>
<filter id="filter0_d" x="8.22217" y="6.33337" width="51.5556" height="55.3333" filterUnits="userSpaceOnUse" color-interpolation-filters="sRGB">
<feFlood flood-opacity="0" result="BackgroundImageFix"/>
<feColorMatrix in="SourceAlpha" type="matrix" values="0 0 0 0 0 0 0 0 0 0 0 0 0 0 0 0 0 0 127 0" result="hardAlpha"/>
<feOffset/>
<feGaussianBlur stdDeviation="2.5"/>
<feColorMatrix type="matrix" values="0 0 0 0 1 0 0 0 0 1 0 0 0 0 1 0 0 0 0.1 0"/>
<feBlend mode="normal" in2="BackgroundImageFix" result="effect1_dropShadow"/>
<feBlend mode="normal" in="SourceGraphic" in2="effect1_dropShadow" result="shape"/>
</filter>
</defs>
</svg>
