<svg width="80" height="80" viewBox="0 0 80 80" fill="none" xmlns="http://www.w3.org/2000/svg">
<path d="M42.2222 24.4444C42.2222 23.2171 41.2272 22.2222 40 22.2222C38.7728 22.2222 37.7778 23.2171 37.7778 24.4444V64.4444C37.7778 65.6717 38.7728 66.6666 40 66.6666C41.2272 66.6666 42.2222 65.6717 42.2222 64.4444V24.4444Z" fill="black"/>
<path d="M24.4444 57.7777C24.4444 56.5504 23.4494 55.5555 22.2222 55.5555C20.995 55.5555 20 56.5504 20 57.7777V64.4444C20 65.6717 20.995 66.6666 22.2222 66.6666C23.4494 66.6666 24.4444 65.6717 24.4444 64.4444V57.7777Z" fill="black"/>
<path d="M22.2222 22.2222C23.4494 22.2222 24.4444 23.2171 24.4444 24.4444V39.9999C24.4444 41.2272 23.4494 42.2222 22.2222 42.2222C20.995 42.2222 20 41.2272 20 39.9999V24.4444C20 23.2171 20.995 22.2222 22.2222 22.2222Z" fill="black"/>
<path d="M60 24.4444C60 23.2171 59.005 22.2222 57.7778 22.2222C56.5506 22.2222 55.5556 23.2171 55.5556 24.4444V55.5555C55.5556 56.7828 56.5506 57.7777 57.7778 57.7777C59.005 57.7777 60 56.7828 60 55.5555V24.4444Z" fill="black"/>
<g filter="url(#filter0_d)">
<path fill-rule="evenodd" clip-rule="evenodd" d="M33.3333 20C33.3333 16.3181 36.3181 13.3334 40 13.3334C43.6819 13.3334 46.6667 16.3181 46.6667 20C46.6667 23.6819 43.6819 26.6667 40 26.6667C36.3181 26.6667 33.3333 23.6819 33.3333 20ZM40 17.7778C38.7728 17.7778 37.7778 18.7727 37.7778 20C37.7778 21.2273 38.7728 22.2223 40 22.2223C41.2272 22.2223 42.2222 21.2273 42.2222 20C42.2222 18.7727 41.2272 17.7778 40 17.7778Z" fill="white"/>
<path fill-rule="evenodd" clip-rule="evenodd" d="M15.5556 44.4445C15.5556 40.7626 18.5403 37.7778 22.2222 37.7778C25.9041 37.7778 28.8889 40.7626 28.8889 44.4445C28.8889 48.1264 25.9041 51.1111 22.2222 51.1111C18.5403 51.1111 15.5556 48.1264 15.5556 44.4445ZM22.2222 42.2223C20.995 42.2223 20 43.2172 20 44.4445C20 45.6718 20.995 46.6667 22.2222 46.6667C23.4494 46.6667 24.4444 45.6718 24.4444 44.4445C24.4444 43.2172 23.4494 42.2223 22.2222 42.2223Z" fill="white"/>
<path fill-rule="evenodd" clip-rule="evenodd" d="M57.7778 53.3334C54.0959 53.3334 51.1111 56.3181 51.1111 60C51.1111 63.6819 54.0959 66.6667 57.7778 66.6667C61.4597 66.6667 64.4444 63.6819 64.4444 60C64.4444 56.3181 61.4597 53.3334 57.7778 53.3334ZM55.5556 60C55.5556 58.7727 56.5506 57.7778 57.7778 57.7778C59.005 57.7778 60 58.7727 60 60C60 61.2273 59.005 62.2223 57.7778 62.2223C56.5506 62.2223 55.5556 61.2273 55.5556 60Z" fill="white"/>
</g>
<defs>
<filter id="filter0_d" x="10.5556" y="8.33337" width="58.8889" height="63.3333" filterUnits="userSpaceOnUse" color-interpolation-filters="sRGB">
<feFlood flood-opacity="0" result="BackgroundImageFix"/>
<feColorMatrix in="SourceAlpha" type="matrix" values="0 0 0 0 0 0 0 0 0 0 0 0 0 0 0 0 0 0 127 0"/>
<feOffset/>
<feGaussianBlur stdDeviation="2.5"/>
<feColorMatrix type="matrix" values="0 0 0 0 0 0 0 0 0 0 0 0 0 0 0 0 0 0 1 0"/>
<feBlend mode="normal" in2="BackgroundImageFix" result="effect1_dropShadow"/>
<feBlend mode="normal" in="SourceGraphic" in2="effect1_dropShadow" result="shape"/>
</filter>
</defs>
</svg>
