<svg width="80" height="80" viewBox="0 0 80 80" fill="none" xmlns="http://www.w3.org/2000/svg">
<path fill-rule="evenodd" clip-rule="evenodd" d="M44.4444 13.3348C37.0378 13.2821 29.629 13.3333 22.2222 13.3333C18.5237 13.3333 17.7778 14.0792 17.7778 17.7778V66.6667C17.7778 70.3652 18.5237 71.1111 22.2222 71.1111H57.7778C61.4763 71.1111 62.2222 70.3652 62.2222 66.6667C62.2222 65.1526 62.4721 63.3333 64.4444 63.3333C66.4569 63.3333 66.6666 65.2079 66.6666 66.7378C66.6666 72.6422 63.7534 75.5558 57.8488 75.5556H22.1511C16.2465 75.5558 13.3333 72.6422 13.3333 66.7377V17.7067C13.3333 11.8031 16.2457 8.88878 22.1499 8.88888L44.0595 8.88881C46.5315 8.88687 48.3328 9.63193 50.0796 11.3813L50.0816 11.3833L64.1723 25.4739C65.8817 27.181 66.6686 29.0251 66.6668 31.4927L66.6666 37.2222C66.6666 38.4495 65.6718 39.4444 64.4444 39.4444C63.2171 39.4444 62.2222 38.4495 62.2222 37.2222C62.2222 35.1853 62.2357 33.148 62.2207 31.1111H51.1111C47.4292 31.1111 44.4444 28.1263 44.4444 24.4444V13.3348ZM59.0794 26.6667L48.8889 16.476V24.4444C48.8889 25.6717 49.8837 26.6667 51.1111 26.6667H59.0794Z" fill="black"/>
<path d="M24.4444 37.7778C24.4444 36.5505 25.4393 35.5555 26.6666 35.5555H53.3333C54.5607 35.5555 55.5555 36.5505 55.5555 37.7778C55.5555 39.0051 54.5607 40 53.3333 40H26.6666C25.4393 40 24.4444 39.0051 24.4444 37.7778Z" fill="black"/>
<path d="M26.6666 26.6667C25.4393 26.6667 24.4444 27.6616 24.4444 28.8889C24.4444 30.1162 25.4393 31.1111 26.6666 31.1111H35.5555C36.7829 31.1111 37.7778 30.1162 37.7778 28.8889C37.7778 27.6616 36.7829 26.6667 35.5555 26.6667H26.6666Z" fill="black"/>
<g filter="url(#filter0_d)">
<path fill-rule="evenodd" clip-rule="evenodd" d="M42.9629 54.6296C43.8307 53.7617 45.2378 53.7617 46.1056 54.6296L51.4092 59.9332L63.5878 47.7546C64.4557 46.8867 65.8627 46.8867 66.7305 47.7546C67.5984 48.6224 67.5984 50.0294 66.7305 50.8973L52.9806 64.6472C52.1127 65.5151 50.7057 65.5151 49.8379 64.6472L42.9629 57.7723C42.0951 56.9044 42.0951 55.4974 42.9629 54.6296Z" fill="white"/>
</g>
<defs>
<filter id="filter0_d" x="37.312" y="42.1037" width="35.0694" height="28.1944" filterUnits="userSpaceOnUse" color-interpolation-filters="sRGB">
<feFlood flood-opacity="0" result="BackgroundImageFix"/>
<feColorMatrix in="SourceAlpha" type="matrix" values="0 0 0 0 0 0 0 0 0 0 0 0 0 0 0 0 0 0 127 0"/>
<feOffset/>
<feGaussianBlur stdDeviation="2.5"/>
<feColorMatrix type="matrix" values="0 0 0 0 1 0 0 0 0 0.6 0 0 0 0 0 0 0 0 1 0"/>
<feBlend mode="normal" in2="BackgroundImageFix" result="effect1_dropShadow"/>
<feBlend mode="normal" in="SourceGraphic" in2="effect1_dropShadow" result="shape"/>
</filter>
</defs>
</svg>
