<svg width="80" height="80" viewBox="0 0 80 80" fill="none" xmlns="http://www.w3.org/2000/svg">
<g clip-path="url(#clip0)">
<path d="M39.9289 8.88892C45.5281 8.88892 48.8889 12.0479 48.8889 17.7067V62.2223C48.8889 63.4496 47.894 64.4445 46.6667 64.4445C45.4393 64.4445 44.4444 63.4496 44.4444 62.2223V17.7778C44.4444 14.0793 43.6985 13.3334 40 13.3334C36.3015 13.3334 35.5556 14.0793 35.5556 17.7778V62.2223C35.5556 63.4496 34.5607 64.4445 33.3333 64.4445C32.106 64.4445 31.1111 63.4496 31.1111 62.2223V17.7067C31.1111 11.8023 34.0243 8.88871 39.9289 8.88892Z" fill="#1D1D1D"/>
<path d="M17.7067 26.6667C11.8021 26.6665 8.88889 29.5801 8.88889 35.4845V62.2223C8.88889 63.4496 9.88376 64.4445 11.1111 64.4445C12.3385 64.4445 13.3333 63.4496 13.3333 62.2223V35.5556C13.3333 31.857 14.0793 31.1111 17.7778 31.1111C21.4763 31.1111 22.2222 31.857 22.2222 35.5556V62.2223C22.2222 63.4496 23.2171 64.4445 24.4444 64.4445C25.6718 64.4445 26.6667 63.4496 26.6667 62.2223V35.4845C26.6667 29.4761 23.668 26.6667 17.7067 26.6667Z" fill="#1D1D1D"/>
<path d="M11.1111 71.1111C9.88376 71.1111 8.88889 72.1061 8.88889 73.3334C8.88889 74.5607 9.88376 75.5556 11.1111 75.5556H68.8889C70.1162 75.5556 71.1111 74.5607 71.1111 73.3334C71.1111 72.1061 70.1162 71.1111 68.8889 71.1111H11.1111Z" fill="#1D1D1D"/>
<g filter="url(#filter0_d)">
<path d="M62.1512 37.7778C56.2466 37.7776 53.3333 40.6912 53.3333 46.5956V62.2223C53.3333 63.4496 54.3282 64.4445 55.5556 64.4445C56.7829 64.4445 57.7778 63.4496 57.7778 62.2223V46.6667C57.7778 42.9682 58.5237 42.2223 62.2222 42.2223C65.9207 42.2223 66.6667 42.9682 66.6667 46.6667V62.2223C66.6667 63.4496 67.6615 64.4445 68.8889 64.4445C70.1162 64.4445 71.1111 63.4496 71.1111 62.2223V46.5956C71.1111 40.9368 67.7504 37.7778 62.1512 37.7778Z" fill="white"/>
</g>
</g>
<defs>
<filter id="filter0_d" x="41.9444" y="26.3889" width="40.5556" height="49.4444" filterUnits="userSpaceOnUse" color-interpolation-filters="sRGB">
<feFlood flood-opacity="0" result="BackgroundImageFix"/>
<feColorMatrix in="SourceAlpha" type="matrix" values="0 0 0 0 0 0 0 0 0 0 0 0 0 0 0 0 0 0 127 0"/>
<feOffset/>
<feGaussianBlur stdDeviation="5.69444"/>
<feColorMatrix type="matrix" values="0 0 0 0 0.1 0 0 0 0 0.1 0 0 0 0 0.1 0 0 0 0.4 0"/>
<feBlend mode="normal" in2="BackgroundImageFix" result="effect1_dropShadow"/>
<feBlend mode="normal" in="SourceGraphic" in2="effect1_dropShadow" result="shape"/>
</filter>
<clipPath id="clip0">
<rect width="80" height="80" fill="white"/>
</clipPath>
</defs>
</svg>
