<svg width="68" height="68" viewBox="0 0 68 68" fill="none" xmlns="http://www.w3.org/2000/svg">
<path fill-rule="evenodd" clip-rule="evenodd" d="M37.7777 11.3346C31.4821 11.2898 25.1846 11.3333 18.8888 11.3333C15.7451 11.3333 15.111 11.9674 15.111 15.1111V56.6667C15.111 59.8104 15.7451 60.4444 18.8888 60.4444H49.111C52.2548 60.4444 52.8888 59.8104 52.8888 56.6667C52.8888 55.3797 53.1013 53.8333 54.7777 53.8333C56.4883 53.8333 56.6666 55.4267 56.6666 56.7271C56.6666 61.7459 54.1904 64.2224 49.1714 64.2222H18.8284C13.8095 64.2224 11.3333 61.7459 11.3333 56.7271V15.0507C11.3333 10.0326 13.8088 7.55546 18.8274 7.55554L37.4505 7.55549C39.5517 7.55383 41.0828 8.18714 42.5676 9.67406L42.5693 9.67576L54.5464 21.6528C55.9994 23.1038 56.6682 24.6713 56.6667 26.7688L56.6666 31.6389C56.6666 32.6821 55.8209 33.5278 54.7777 33.5278C53.7345 33.5278 52.8888 32.6821 52.8888 31.6389C52.8888 29.9075 52.9003 28.1758 52.8875 26.4444H43.4444C40.3147 26.4444 37.7777 23.9074 37.7777 20.7778V11.3346ZM50.2175 22.6667L41.5555 14.0046V20.7778C41.5555 21.821 42.4011 22.6667 43.4444 22.6667H50.2175Z" fill="white"/>
<path d="M20.7777 32.1111C20.7777 31.0679 21.6233 30.2222 22.6666 30.2222H45.3333C46.3765 30.2222 47.2221 31.0679 47.2221 32.1111C47.2221 33.1543 46.3765 34 45.3333 34H22.6666C21.6233 34 20.7777 33.1543 20.7777 32.1111Z" fill="white"/>
<path d="M22.6666 22.6667C21.6233 22.6667 20.7777 23.5123 20.7777 24.5555C20.7777 25.5987 21.6233 26.4444 22.6666 26.4444H30.2221C31.2654 26.4444 32.111 25.5987 32.111 24.5555C32.111 23.5123 31.2654 22.6667 30.2221 22.6667H22.6666Z" fill="white"/>
<path fill-rule="evenodd" clip-rule="evenodd" d="M36.5186 46.4351C37.2562 45.6974 38.4522 45.6974 39.1899 46.4351L43.698 50.9432L54.0498 40.5913C54.7874 39.8537 55.9834 39.8537 56.7211 40.5913C57.4587 41.329 57.4587 42.525 56.7211 43.2626L45.0336 54.9501C44.2959 55.6878 43.1 55.6878 42.3623 54.9501L36.5186 49.1064C35.7809 48.3687 35.7809 47.1727 36.5186 46.4351Z" fill="#5686F5"/>
</svg>
