<svg width="68" height="68" viewBox="0 0 68 68" fill="none" xmlns="http://www.w3.org/2000/svg">
<path d="M48.8818 10.3218L59.567 21.0069L56.8957 23.6782L46.2105 12.9931L48.8818 10.3218Z" fill="#5686F5"/>
<path fill-rule="evenodd" clip-rule="evenodd" d="M24.1693 34.3306C23.2847 35.2142 22.7209 36.1548 22.3596 37.3519L22.3588 37.3544L18.9696 48.5645C18.5432 49.9746 19.8976 51.339 21.3108 50.9232L32.5762 47.6091C33.7964 47.2508 34.7524 46.6836 35.6511 45.7839L63.7475 17.6875C66.1176 15.3177 62.4086 10.6246 60.8349 9.05257C59.2565 7.47584 54.6465 3.85245 52.28 6.21995L24.1693 34.3306ZM60.5533 15.5391L33.0377 43.0548C32.5184 43.5741 32.1372 43.8004 31.4326 44.0077L23.5971 46.3128L25.952 38.5237C26.1607 37.8332 26.3867 37.4558 26.8968 36.9457L54.4487 9.39381C56.9596 9.74289 60.1813 13.0545 60.5533 15.5391Z" fill="white"/>
<path fill-rule="evenodd" clip-rule="evenodd" d="M16.9395 9.44449L32.9828 9.44449C34.026 9.44449 34.8717 10.2902 34.8717 11.3334C34.8717 12.3766 34.026 13.2223 32.9828 13.2223H16.9999C13.8561 13.2223 13.2221 13.8563 13.2221 17V52.8889C13.2221 56.0327 13.8561 56.6667 16.9999 56.6667H50.9999C54.1437 56.6667 54.7777 56.0327 54.7777 52.8889V37.8868C54.7777 36.8436 55.6234 35.9979 56.6666 35.9979C57.7098 35.9979 58.5555 36.8436 58.5555 37.8868V52.9494C58.5556 57.9681 56.0791 60.4446 51.0603 60.4445H16.9395C11.9207 60.4446 9.44419 57.9681 9.44434 52.9493V16.9396C9.44419 11.9208 11.9207 9.44435 16.9395 9.44449Z" fill="white"/>
</svg>
