<svg width="46" height="45" viewBox="0 0 46 45" fill="none" xmlns="http://www.w3.org/2000/svg">
<g filter="url(#filter0_d)">
<path d="M32.8799 6.84961L39.857 13.8267L38.1127 15.571L31.1356 8.59388L32.8799 6.84961Z" fill="#E7F3F9"/>
</g>
<path fill-rule="evenodd" clip-rule="evenodd" d="M16.7438 22.5269C16.1662 23.1039 15.7981 23.718 15.5622 24.4997L15.5616 24.5014L13.3486 31.8212C13.0702 32.742 13.9545 33.6329 14.8774 33.3614L22.2333 31.1974C23.03 30.9634 23.6543 30.593 24.2411 30.0056L42.5872 11.6595C44.1348 10.1121 41.7129 7.04762 40.6854 6.02112C39.6547 4.99156 36.6445 2.6256 35.0993 4.1715L16.7438 22.5269ZM40.5015 10.2566L22.5347 28.2235C22.1955 28.5626 21.9466 28.7104 21.4866 28.8457L16.3702 30.3509L17.9079 25.2649C18.0442 24.814 18.1918 24.5675 18.5248 24.2345L36.5154 6.24394C38.1549 6.47187 40.2586 8.63428 40.5015 10.2566Z" fill="white"/>
<path fill-rule="evenodd" clip-rule="evenodd" d="M12.023 6.27703L22.4988 6.27703C23.18 6.27703 23.7322 6.82923 23.7322 7.51041C23.7322 8.19159 23.18 8.7438 22.4988 8.7438H12.0625C10.0097 8.7438 9.59568 9.15779 9.59568 11.2106V34.6449C9.59568 36.6977 10.0097 37.1117 12.0625 37.1117H34.2634C36.3162 37.1117 36.7302 36.6977 36.7302 34.6449V24.849C36.7302 24.1678 37.2824 23.6156 37.9636 23.6156C38.6448 23.6156 39.197 24.1678 39.197 24.849V34.6844C39.1971 37.9615 37.58 39.5786 34.3029 39.5785H12.023C8.74587 39.5786 7.12881 37.9615 7.12891 34.6844V11.1711C7.12881 7.894 8.74588 6.27693 12.023 6.27703Z" fill="white"/>
<defs>
<filter id="filter0_d" x="28.4994" y="4.21325" width="13.9941" height="13.9941" filterUnits="userSpaceOnUse" color-interpolation-filters="sRGB">
<feFlood flood-opacity="0" result="BackgroundImageFix"/>
<feColorMatrix in="SourceAlpha" type="matrix" values="0 0 0 0 0 0 0 0 0 0 0 0 0 0 0 0 0 0 127 0"/>
<feOffset/>
<feGaussianBlur stdDeviation="1.31818"/>
<feColorMatrix type="matrix" values="0 0 0 0 1 0 0 0 0 1 0 0 0 0 1 0 0 0 1 0"/>
<feBlend mode="normal" in2="BackgroundImageFix" result="effect1_dropShadow"/>
<feBlend mode="normal" in="SourceGraphic" in2="effect1_dropShadow" result="shape"/>
</filter>
</defs>
</svg>
