<svg width="68" height="68" viewBox="0 0 68 68" fill="none" xmlns="http://www.w3.org/2000/svg">
<g clip-path="url(#clip0)">
<path d="M33.9397 7.55554C38.699 7.55554 41.5557 10.2407 41.5557 15.0507V52.8889C41.5557 53.9321 40.71 54.7778 39.6668 54.7778C38.6235 54.7778 37.7779 53.9321 37.7779 52.8889V15.1111C37.7779 11.9673 37.1439 11.3333 34.0001 11.3333C30.8564 11.3333 30.2223 11.9673 30.2223 15.1111V52.8889C30.2223 53.9321 29.3767 54.7778 28.3334 54.7778C27.2902 54.7778 26.4446 53.9321 26.4446 52.8889V15.0507C26.4446 10.0319 28.9208 7.55537 33.9397 7.55554Z" fill="white"/>
<path d="M15.0508 22.6667C10.0319 22.6665 7.55566 25.143 7.55566 30.1618V52.8889C7.55566 53.9321 8.40131 54.7778 9.44455 54.7778C10.4878 54.7778 11.3334 53.9321 11.3334 52.8889V30.2222C11.3334 27.0785 11.9675 26.4444 15.1112 26.4444C18.255 26.4444 18.889 27.0785 18.889 30.2222V52.8889C18.889 53.9321 19.7346 54.7778 20.7779 54.7778C21.8211 54.7778 22.6668 53.9321 22.6668 52.8889V30.1618C22.6668 25.0547 20.1179 22.6667 15.0508 22.6667Z" fill="white"/>
<path d="M9.44455 60.4444C8.40131 60.4444 7.55566 61.2901 7.55566 62.3333C7.55566 63.3765 8.40131 64.2222 9.44455 64.2222H58.5557C59.5989 64.2222 60.4446 63.3765 60.4446 62.3333C60.4446 61.2901 59.5989 60.4444 58.5557 60.4444H9.44455Z" fill="white"/>
<g filter="url(#filter0_d)">
<path d="M52.8286 32.1111C47.8097 32.1109 45.3335 34.5874 45.3335 39.6062V52.8889C45.3335 53.9321 46.1791 54.7778 47.2224 54.7778C48.2656 54.7778 49.1113 53.9321 49.1113 52.8889V39.6666C49.1113 36.5229 49.7453 35.8889 52.889 35.8889C56.0328 35.8889 56.6668 36.5229 56.6668 39.6666V52.8889C56.6668 53.9321 57.5125 54.7778 58.5557 54.7778C59.599 54.7778 60.4446 53.9321 60.4446 52.8889V39.6062C60.4446 34.7962 57.588 32.1111 52.8286 32.1111Z" fill="#5686F5"/>
</g>
</g>
<defs>
<filter id="filter0_d" x="33.9446" y="20.7222" width="37.8889" height="45.4444" filterUnits="userSpaceOnUse" color-interpolation-filters="sRGB">
<feFlood flood-opacity="0" result="BackgroundImageFix"/>
<feColorMatrix in="SourceAlpha" type="matrix" values="0 0 0 0 0 0 0 0 0 0 0 0 0 0 0 0 0 0 127 0" result="hardAlpha"/>
<feOffset/>
<feGaussianBlur stdDeviation="5.69444"/>
<feColorMatrix type="matrix" values="0 0 0 0 0.1 0 0 0 0 0.1 0 0 0 0 0.1 0 0 0 0.4 0"/>
<feBlend mode="normal" in2="BackgroundImageFix" result="effect1_dropShadow"/>
<feBlend mode="normal" in="SourceGraphic" in2="effect1_dropShadow" result="shape"/>
</filter>
<clipPath id="clip0">
<rect width="68" height="68" fill="white"/>
</clipPath>
</defs>
</svg>
