<svg width="80" height="80" viewBox="0 0 80 80" fill="none" xmlns="http://www.w3.org/2000/svg">
<g filter="url(#filter0_d)">
<path fill-rule="evenodd" clip-rule="evenodd" d="M40 35.5555C35.0908 35.5555 31.1111 39.5352 31.1111 44.4444C31.1111 49.3536 35.0908 53.3333 40 53.3333C44.9092 53.3333 48.8888 49.3536 48.8888 44.4444C48.8888 39.5352 44.9092 35.5555 40 35.5555ZM26.6666 44.4444C26.6666 37.0806 32.6362 31.1111 40 31.1111C47.3638 31.1111 53.3333 37.0806 53.3333 44.4444C53.3333 51.8082 47.3638 57.7778 40 57.7778C32.6362 57.7778 26.6666 51.8082 26.6666 44.4444Z" fill="white"/>
</g>
<path d="M54.8293 15.5554C52.3978 15.5535 50.4703 16.3124 48.8072 18.0498L45.9369 20.9204C44.8929 21.9643 44.2174 22.2221 42.794 22.2221H15.4844C9.57986 22.222 6.66663 25.1354 6.66663 31.0399V57.8487C6.66663 63.7532 9.57984 66.6668 15.4844 66.6666H64.5155C70.4201 66.6668 73.3333 63.7532 73.3333 57.8488V31.0399C73.3333 25.1354 70.42 22.222 64.5155 22.2221H62.2222C60.995 22.2221 60 23.217 60 24.4443C60 25.6716 60.995 26.6666 62.2222 26.6666H64.4444C68.1429 26.6666 68.8889 27.4125 68.8889 31.111V57.7777C68.8889 61.4762 68.1429 62.2221 64.4444 62.2221H15.5555C11.857 62.2221 11.1111 61.4762 11.1111 57.7777V31.111C11.1111 27.4125 11.857 26.6666 15.5555 26.6666L42.9484 26.6666C46.9026 26.6697 49.2742 23.8685 51.8408 21.3016C52.9059 20.2366 53.4775 19.9999 54.9837 19.9999H57.7777C59.005 19.9999 60 19.005 60 17.7777C60 16.5504 59.005 15.5554 57.7777 15.5554L54.8293 15.5554Z" fill="black"/>
<path d="M28.8888 71.111C27.6616 71.111 26.6666 72.1059 26.6666 73.3332C26.6666 74.5605 27.6616 75.5555 28.8888 75.5555H51.1111C52.3383 75.5555 53.3333 74.5605 53.3333 73.3332C53.3333 72.1059 52.3383 71.111 51.1111 71.111H28.8888Z" fill="black"/>
<defs>
<filter id="filter0_d" x="21.6666" y="26.1111" width="36.6667" height="36.6667" filterUnits="userSpaceOnUse" color-interpolation-filters="sRGB">
<feFlood flood-opacity="0" result="BackgroundImageFix"/>
<feColorMatrix in="SourceAlpha" type="matrix" values="0 0 0 0 0 0 0 0 0 0 0 0 0 0 0 0 0 0 127 0"/>
<feOffset/>
<feGaussianBlur stdDeviation="2.5"/>
<feColorMatrix type="matrix" values="0 0 0 0 0 0 0 0 0 0 0 0 0 0 0 0 0 0 1 0"/>
<feBlend mode="normal" in2="BackgroundImageFix" result="effect1_dropShadow"/>
<feBlend mode="normal" in="SourceGraphic" in2="effect1_dropShadow" result="shape"/>
</filter>
</defs>
</svg>
