<svg width="68" height="68" viewBox="0 0 68 68" fill="none" xmlns="http://www.w3.org/2000/svg">
<path fill-rule="evenodd" clip-rule="evenodd" d="M33.9998 30.2222C29.827 30.2222 26.4443 33.605 26.4443 37.7778C26.4443 41.9506 29.827 45.3334 33.9998 45.3334C38.1727 45.3334 41.5554 41.9506 41.5554 37.7778C41.5554 33.605 38.1727 30.2222 33.9998 30.2222ZM22.6665 37.7778C22.6665 31.5186 27.7406 26.4445 33.9998 26.4445C40.2591 26.4445 45.3332 31.5186 45.3332 37.7778C45.3332 44.037 40.2591 49.1111 33.9998 49.1111C27.7406 49.1111 22.6665 44.037 22.6665 37.7778Z" fill="#5686F5"/>
<path d="M46.6048 13.2221C44.538 13.2205 42.8996 13.8656 41.486 15.3424L39.0463 17.7824C38.1589 18.6697 37.5847 18.8888 36.3748 18.8888H13.1616C8.14275 18.8887 5.6665 21.3651 5.6665 26.384V49.1715C5.6665 54.1903 8.14274 56.6668 13.1616 56.6666H54.838C59.8569 56.6668 62.3332 54.1903 62.3332 49.1715V26.384C62.3332 21.3651 59.8569 18.8887 54.838 18.8888H52.8887C51.8456 18.8888 50.9998 19.7345 50.9998 20.7777C50.9998 21.8209 51.8456 22.6666 52.8887 22.6666H54.7776C57.9214 22.6666 58.5554 23.3007 58.5554 26.4444V49.1111C58.5554 52.2548 57.9214 52.8888 54.7776 52.8888H13.2221C10.0783 52.8888 9.44428 52.2548 9.44428 49.1111V26.4444C9.44428 23.3007 10.0783 22.6666 13.2221 22.6666L36.506 22.6667C39.8671 22.6693 41.883 20.2882 44.0645 18.1064C44.9699 17.2011 45.4557 16.9999 46.736 16.9999H49.111C50.1541 16.9999 50.9998 16.1543 50.9998 15.1111C50.9998 14.0679 50.1541 13.2222 49.111 13.2222L46.6048 13.2221Z" fill="white"/>
<path d="M24.5554 60.4444C23.5123 60.4444 22.6665 61.2901 22.6665 62.3333C22.6665 63.3765 23.5123 64.2222 24.5554 64.2222H43.4443C44.4874 64.2222 45.3332 63.3765 45.3332 62.3333C45.3332 61.2901 44.4874 60.4444 43.4443 60.4444H24.5554Z" fill="white"/>
</svg>
