<svg width="68" height="68" viewBox="0 0 68 68" fill="none" xmlns="http://www.w3.org/2000/svg">
<path d="M51.4584 37.3195C50.7207 36.5818 49.5248 36.5818 48.7871 37.3195C48.0494 38.0571 48.0494 39.2531 48.7871 39.9908L52.2408 43.4445H39.6667C38.6235 43.4445 37.7778 44.2901 37.7778 45.3334C37.7778 46.3766 38.6235 47.2222 39.6667 47.2222H52.2408L48.7871 50.6759C48.0494 51.4136 48.0494 52.6096 48.7871 53.3472C49.5248 54.0849 50.7207 54.0849 51.4584 53.3472L58.1366 46.669C58.8743 45.9313 58.8743 44.7354 58.1366 43.9977L51.4584 37.3195Z" fill="#5686F5"/>
<path fill-rule="evenodd" clip-rule="evenodd" d="M37.7779 11.3346C31.4823 11.2898 25.1848 11.3333 18.8891 11.3333C15.7453 11.3333 15.1113 11.9674 15.1113 15.1111V56.6667C15.1113 59.8104 15.7453 60.4444 18.8891 60.4444H49.1113C52.255 60.4444 52.8891 59.8104 52.8891 56.6667C52.8891 55.3797 53.1015 53.8333 54.7779 53.8333C56.4885 53.8333 56.6668 55.4267 56.6668 56.7271C56.6668 61.7459 54.1906 64.2224 49.1717 64.2222H18.8286C13.8097 64.2224 11.3335 61.7459 11.3335 56.7271V15.0507C11.3335 10.0326 13.8091 7.55546 18.8276 7.55554L37.4508 7.55549C39.552 7.55383 41.083 8.18714 42.5678 9.67406L42.5696 9.67576L54.5467 21.6528C55.9996 23.1038 56.6685 24.6713 56.6669 26.7688L56.6668 31.6389C56.6668 32.6821 55.8212 33.5278 54.7779 33.5278C53.7347 33.5278 52.8891 32.6821 52.8891 31.6389C52.8891 29.9075 52.9005 28.1758 52.8878 26.4444H43.4446C40.315 26.4444 37.7779 23.9074 37.7779 20.7778V11.3346ZM50.2177 22.6667L41.5557 14.0046V20.7778C41.5557 21.821 42.4014 22.6667 43.4446 22.6667H50.2177Z" fill="white"/>
<path d="M20.7779 32.1111C20.7779 31.0679 21.6236 30.2222 22.6668 30.2222H45.3335C46.3767 30.2222 47.2224 31.0679 47.2224 32.1111C47.2224 33.1543 46.3767 34 45.3335 34H22.6668C21.6236 34 20.7779 33.1543 20.7779 32.1111Z" fill="white"/>
<path d="M22.6668 22.6667C21.6236 22.6667 20.7779 23.5123 20.7779 24.5555C20.7779 25.5987 21.6236 26.4444 22.6668 26.4444H30.2224C31.2656 26.4444 32.1113 25.5987 32.1113 24.5555C32.1113 23.5123 31.2656 22.6667 30.2224 22.6667H22.6668Z" fill="white"/>
</svg>
