<svg width="80" height="80" viewBox="0 0 80 80" fill="none" xmlns="http://www.w3.org/2000/svg">
<g filter="url(#filter0_d)">
<path d="M60.5392 43.9053C59.6714 43.0374 58.2644 43.0374 57.3965 43.9053C56.5287 44.7731 56.5287 46.1801 57.3965 47.048L61.4597 51.1111H46.6667C45.4394 51.1111 44.4445 52.1061 44.4445 53.3334C44.4445 54.5607 45.4394 55.5556 46.6667 55.5556H61.4597L57.3965 59.6188C56.5287 60.4866 56.5287 61.8936 57.3965 62.7614C58.2644 63.6293 59.6714 63.6293 60.5392 62.7614L68.3959 54.9047C69.2638 54.0369 69.2638 52.6298 68.3959 51.762L60.5392 43.9053Z" fill="white"/>
</g>
<path fill-rule="evenodd" clip-rule="evenodd" d="M44.4445 13.3348C37.0379 13.2821 29.6291 13.3333 22.2223 13.3333C18.5237 13.3333 17.7778 14.0792 17.7778 17.7777V66.6666C17.7778 70.3651 18.5237 71.111 22.2223 71.111H57.7778C61.4763 71.111 62.2223 70.3651 62.2223 66.6666C62.2223 65.1525 62.4722 63.3333 64.4445 63.3333C66.457 63.3333 66.6667 65.2079 66.6667 66.7377C66.6667 72.6421 63.7535 75.5557 57.8489 75.5555H22.1512C16.2466 75.5557 13.3334 72.6421 13.3334 66.7377V17.7066C13.3334 11.803 16.2458 8.88872 22.15 8.88882L44.0596 8.88875C46.5316 8.8868 48.3328 9.63187 50.0797 11.3812L50.0817 11.3832L64.1724 25.4739C65.8817 27.1809 66.6686 29.025 66.6668 31.4926L66.6667 37.2222C66.6667 38.4495 65.6718 39.4444 64.4445 39.4444C63.2171 39.4444 62.2223 38.4495 62.2223 37.2222C62.2223 35.1852 62.2357 33.1479 62.2208 31.111H51.1112C47.4292 31.111 44.4445 28.1263 44.4445 24.4444V13.3348ZM59.0795 26.6666L48.8889 16.476V24.4444C48.8889 25.6717 49.8838 26.6666 51.1112 26.6666H59.0795Z" fill="black"/>
<path d="M24.4445 37.7777C24.4445 36.5504 25.4394 35.5555 26.6667 35.5555H53.3334C54.5607 35.5555 55.5556 36.5504 55.5556 37.7777C55.5556 39.005 54.5607 39.9999 53.3334 39.9999H26.6667C25.4394 39.9999 24.4445 39.005 24.4445 37.7777Z" fill="black"/>
<path d="M26.6667 26.6666C25.4394 26.6666 24.4445 27.6615 24.4445 28.8888C24.4445 30.1161 25.4394 31.111 26.6667 31.111H35.5556C36.7829 31.111 37.7778 30.1161 37.7778 28.8888C37.7778 27.6615 36.7829 26.6666 35.5556 26.6666H26.6667Z" fill="black"/>
<defs>
<filter id="filter0_d" x="39.4445" y="38.2544" width="34.6024" height="30.1579" filterUnits="userSpaceOnUse" color-interpolation-filters="sRGB">
<feFlood flood-opacity="0" result="BackgroundImageFix"/>
<feColorMatrix in="SourceAlpha" type="matrix" values="0 0 0 0 0 0 0 0 0 0 0 0 0 0 0 0 0 0 127 0"/>
<feOffset/>
<feGaussianBlur stdDeviation="2.5"/>
<feColorMatrix type="matrix" values="0 0 0 0 1 0 0 0 0 0.6 0 0 0 0 0 0 0 0 0.5 0"/>
<feBlend mode="normal" in2="BackgroundImageFix" result="effect1_dropShadow"/>
<feBlend mode="normal" in="SourceGraphic" in2="effect1_dropShadow" result="shape"/>
</filter>
</defs>
</svg>
