<svg width="80" height="80" viewBox="0 0 80 80" fill="none" xmlns="http://www.w3.org/2000/svg">
<g filter="url(#filter0_d)">
<path d="M57.5081 12.1433L70.0789 24.7141L66.9362 27.8568L54.3654 15.286L57.5081 12.1433Z" fill="white"/>
</g>
<path fill-rule="evenodd" clip-rule="evenodd" d="M28.4345 40.3889C27.3938 41.4285 26.7305 42.5351 26.3055 43.9434L26.3046 43.9464L22.3173 57.1347C21.8157 58.7937 23.409 60.3989 25.0716 59.9097L38.3251 56.0107C39.7605 55.5891 40.8852 54.9219 41.9426 53.8634L74.9972 20.8088C77.7855 18.0209 73.422 12.4996 71.5705 10.6501C69.7136 8.7951 64.2901 4.53229 61.506 7.31758L28.4345 40.3889ZM71.2393 18.2813L38.868 50.6527C38.257 51.2636 37.8086 51.5299 36.9796 51.7737L27.7614 54.4856L30.5319 45.322C30.7773 44.5097 31.0433 44.0656 31.6434 43.4655L64.0574 11.0515C67.0114 11.4622 70.8016 15.3583 71.2393 18.2813Z" fill="black"/>
<path fill-rule="evenodd" clip-rule="evenodd" d="M19.9289 11.1112L38.8034 11.1112C40.0307 11.1112 41.0256 12.1061 41.0256 13.3334C41.0256 14.5607 40.0307 15.5556 38.8034 15.5556H20C16.3014 15.5556 15.5555 16.3015 15.5555 20.0001V62.2223C15.5555 65.9208 16.3014 66.6667 20 66.6667H60C63.6985 66.6667 64.4444 65.9208 64.4444 62.2223V44.5727C64.4444 43.3454 65.4393 42.3505 66.6666 42.3505C67.8939 42.3505 68.8889 43.3454 68.8889 44.5727V62.2934C68.889 68.1978 65.9755 71.1113 60.0711 71.1112H19.9289C14.0244 71.1113 11.1109 68.1978 11.1111 62.2933V19.929C11.1109 14.0245 14.0244 11.111 19.9289 11.1112Z" fill="black"/>
<defs>
<filter id="filter0_d" x="49.3654" y="7.14331" width="25.7135" height="25.7135" filterUnits="userSpaceOnUse" color-interpolation-filters="sRGB">
<feFlood flood-opacity="0" result="BackgroundImageFix"/>
<feColorMatrix in="SourceAlpha" type="matrix" values="0 0 0 0 0 0 0 0 0 0 0 0 0 0 0 0 0 0 127 0"/>
<feOffset/>
<feGaussianBlur stdDeviation="2.5"/>
<feColorMatrix type="matrix" values="0 0 0 0 0.00416667 0 0 0 0 0.00415972 0 0 0 0 0.00414931 0 0 0 1 0"/>
<feBlend mode="normal" in2="BackgroundImageFix" result="effect1_dropShadow"/>
<feBlend mode="normal" in="SourceGraphic" in2="effect1_dropShadow" result="shape"/>
</filter>
</defs>
</svg>
