<svg width="214" height="50" viewBox="0 0 214 50" fill="none" xmlns="http://www.w3.org/2000/svg">
<g clip-path="url(#clip0)">
<path d="M0.00151825 3H39.178V42.1789H0.00151825V3Z" fill="#5686F5"/>
<path d="M1.99832 18.3402C5.10895 15.5686 8.08127 12.6396 11.1241 9.78936C12.3201 8.6666 13.5432 7.57096 14.7527 6.46448C14.8504 6.51329 14.948 6.56482 15.0456 6.61635V7.87199C15.0456 11.9671 15.0592 16.0621 15.0321 20.1572C15.0266 21.0142 15.2951 21.5078 16.1684 21.7464C17.245 22.0393 18.281 22.4787 19.3414 22.8367C20.7299 23.3058 21.7984 24.1086 22.2974 25.5432C22.848 27.1189 24.0331 27.7155 25.6304 27.9569C27.7566 28.2796 29.8774 28.7271 31.9466 29.3101C33.4382 29.7305 33.7067 30.5088 32.9935 31.8702C32.2802 33.2371 31.4449 34.5415 30.6178 35.8433C30.0808 36.6894 29.2726 37.0664 28.2556 37.0393C27.019 37.0094 25.7688 37.1559 24.5484 37.0148C21.3021 36.6379 18.4844 37.5193 15.9162 39.5099C15.2192 40.0523 14.9507 40.4075 15.5392 41.1506C15.8131 41.495 15.9948 41.91 16.2524 42.3764H-0.602463V21.5973C0.124344 20.4094 0.929802 19.2948 1.99832 18.3402ZM11.6963 20.5667C12.4096 20.6535 13.1066 20.8895 13.9907 21.1037V10.085C13.9039 10.0606 13.8171 10.0361 13.7303 10.0117C13.5757 10.5053 13.4184 10.9962 13.2666 11.4925C12.4882 14.077 11.737 16.6669 10.918 19.2406C10.6549 20.0677 10.7824 20.4555 11.6963 20.5667Z" fill="#171B21"/>
</g>
<path d="M79.2063 42H84.9024L76.3583 13.9325H68.0619L59.4765 42H65.2139L66.8649 36.4278H77.5553L79.2063 42ZM68.3095 31.4747L71.8593 19.3396H72.5197L76.1107 31.4747H68.3095ZM108.849 20.743H89.4498V42H94.8156V25.6961H103.484V42H108.849V20.743ZM134.97 32.9193V20.743H129.605V32.5066C129.605 36.2214 128.325 37.4597 124.899 37.4597C121.473 37.4597 120.194 36.2214 120.194 32.5066V20.743H114.828V32.9193C114.828 39.8124 118.625 42.4128 124.899 42.4128C131.173 42.4128 134.97 39.8124 134.97 32.9193ZM151.729 20.3303C149.17 20.3303 147.106 21.2383 145.702 23.3021V13.107H140.337V42H145.702V39.3996C147.106 41.5047 149.17 42.4128 151.729 42.4128C158.126 42.4128 160.892 37.4184 160.892 31.3509C160.892 25.2833 158.126 20.3303 151.729 20.3303ZM150.614 37.4597C147.188 37.4597 145.702 35.6023 145.702 31.3509C145.702 27.1407 147.188 25.2833 150.614 25.2833C154.04 25.2833 155.526 27.1407 155.526 31.3509C155.526 35.6023 154.04 37.4597 150.614 37.4597ZM165.836 13.107V17.2346H171.202V13.107H165.836ZM165.836 20.743V42H171.202V20.743H165.836ZM176.975 39.7711C179.988 41.7936 182.919 42.4128 186.138 42.4128C190.968 42.4128 194.724 39.9775 194.724 35.7674C194.724 31.6811 192.371 30.3602 186.18 29.0807C182.878 28.379 182.341 27.8012 182.341 26.7693C182.341 25.8199 183.043 25.2833 184.529 25.2833C186.799 25.2833 190.06 25.9437 193.073 27.4297V22.4766C191.05 21.0732 187.707 20.3303 184.941 20.3303C180.525 20.3303 176.975 22.2702 176.975 26.5216C176.975 29.7824 178.833 32.3415 185.313 33.3321C188.615 33.8687 189.358 34.4465 189.358 35.6435C189.358 36.6754 188.532 37.4597 186.551 37.4597C183.497 37.4597 180.731 36.7167 176.975 34.364V39.7711Z" fill="white"/>
<defs>
<clipPath id="clip0">
<rect width="39.1765" height="39.1789" fill="white" transform="matrix(-1 0 0 1 39.1765 3)"/>
</clipPath>
</defs>
</svg>
